<?xml version="1.0" encoding="UTF-8" standalone="no"?>
<!DOCTYPE svg PUBLIC "-//W3C//DTD SVG 1.1//EN" "http://www.w3.org/Graphics/SVG/1.1/DTD/svg11.dtd">
<svg height="100%" stroke-miterlimit="10" style="fill-rule:nonzero;clip-rule:evenodd;stroke-linecap:round;stroke-linejoin:round;" version="1.1" viewBox="0 0 841.995 595.35" width="100%" xml:space="preserve" xmlns="http://www.w3.org/2000/svg" xmlns:xlink="http://www.w3.org/1999/xlink">
<defs/>
<g id="Layer-1">
<path d="M467.526 81.8314C507.813 129.159 510.408 315.818 508.984 351.379C507.561 386.941 504.972 423.835 504.972 423.835C504.972 423.835 508.645 416.24 514.079 395.39C516.183 387.317 520.921 357.494 521.216 347.368C522.908 289.371 528.286 219.281 544.835 204.841C572.303 180.876 602.656 205.659 606.955 217.368C610.75 227.703 628.999 253.546 625.502 299.738C622.005 345.93 620.085 386.64 610.588 405.029" fill="none" opacity="1" stroke="#050505" stroke-linecap="round" stroke-linejoin="round" stroke-width="10"/>
<path d="M6.88955 254.106L255.417 587.266L619.94 585.229L828.105 252.359" fill="none" opacity="1" stroke="#050505" stroke-linecap="butt" stroke-linejoin="round" stroke-width="10"/>
<path d="M328.853 149.231C328.853 149.231 317.677 130.12 384.154 92.3685C450.632 54.6169 571.684 9.95575 571.684 9.95575" fill="none" opacity="1" stroke="#050505" stroke-linecap="butt" stroke-linejoin="round" stroke-width="10"/>
<path d="M396.068 85.0479C396.068 85.0479 420.736 84.2943 441.857 110.453C445.523 114.994 449.094 120.529 452.426 127.266C456.905 136.323 460.951 147.552 464.217 161.459C483.906 245.309 461.613 424.354 461.613 424.354" fill="none" opacity="1" stroke="#050505" stroke-linecap="butt" stroke-linejoin="round" stroke-width="10"/>
<path d="M304.311 247.595L434.902 335.29L262.631 292.978L304.311 247.595Z" fill="none" opacity="1" stroke="#050505" stroke-linecap="butt" stroke-linejoin="round" stroke-width="10"/>
<path d="M231.253 376.181L193.571 472.062L185.636 428.189L231.253 376.181Z" fill="none" opacity="1" stroke="#050505" stroke-linecap="butt" stroke-linejoin="round" stroke-width="10"/>
<path d="M208.805 360.965L323.888 221.25L327.535 429.521L208.805 360.965Z" fill="none" opacity="1" stroke="#050505" stroke-linecap="butt" stroke-linejoin="round" stroke-width="10"/>
<g opacity="1">
<path d="M301.969 272.812C299.447 272.692 297.305 274.534 296.312 276.719C295.22 279.125 295.125 282.184 296.625 284.438C297.308 285.464 298.301 286.082 299.375 286.5C300.163 287.956 301.764 288.841 303.531 288.844C304.719 288.845 306.226 288.423 307.656 287.781C309.655 287.473 311.516 286.449 312.531 284.656C313.862 282.306 313.008 279.399 311.031 277.781C310.704 277.464 310.342 277.255 309.906 277.156C309.633 277.027 309.424 276.799 309.125 276.719C308.488 276.548 307.844 276.723 307.188 276.781C307.065 276.489 306.957 276.194 306.812 275.938C306.017 274.524 304.982 273.557 303.406 273.031C302.953 272.88 302.446 272.835 301.969 272.812ZM301.031 277C300.926 277.07 300.822 277.139 300.719 277.219C300.819 277.133 300.905 277.072 301.031 277Z" fill="#050505" stroke="none"/>
</g>
<path d="M295.224 255.045L148.387 156.794L48.1067 230.139L132.935 261.824L269.288 294.802" fill="none" opacity="1" stroke="#050505" stroke-linecap="butt" stroke-linejoin="round" stroke-width="10"/>
<path d="M325.06 224.214L85.4357 171.067L123.835 339.1L176.11 333.724L238.57 327.301" fill="none" opacity="1" stroke="#050505" stroke-linecap="butt" stroke-linejoin="round" stroke-width="10"/>
<path d="M303.103 422.132L253.503 482.09L304.449 522.101L253.643 482.526L278.83 450.4C278.83 450.4 313.962 495.221 320.44 502.475C326.918 509.73 279.226 450.826 279.226 450.826L303.375 422.71L338.199 480.681L303.103 422.132Z" fill="none" opacity="1" stroke="#050505" stroke-linecap="butt" stroke-linejoin="round" stroke-width="10"/>
<path d="M422.902 476.314C422.902 476.314 413.653 458.039 391.379 458.078C374.117 458.109 355.182 468.846 353.995 481.423C352.809 494 375.934 507.989 391.447 509.209C406.961 510.429 421.335 522.028 421.352 534.929C421.358 539.502 409.981 553.032 391.506 552.857C372.767 552.679 362.57 536.28 353.332 524.864" fill="none" opacity="1" stroke="#050505" stroke-linecap="butt" stroke-linejoin="round" stroke-width="10"/>
<path d="M447.54 464.952C447.293 486.177 446.552 549.851 446.552 549.851L447.375 506.243L484.612 506.243L507.349 506.984L507.844 549.851L508.009 466.774" fill="none" opacity="1" stroke="#050505" stroke-linecap="butt" stroke-linejoin="round" stroke-width="10"/>
<path d="M560.12 477.369C551.729 476.839 535.669 485.883 535.406 514.617C535.142 543.454 548.209 551.388 557.105 551.134C565.198 550.902 579.831 548.64 581.966 517.301C583.88 489.202 567.017 477.804 560.12 477.369Z" fill="none" opacity="1" stroke="#050505" stroke-linecap="butt" stroke-linejoin="round" stroke-width="10"/>
<path d="M602.624 478.495L605.201 551.209L605.577 516.67C605.577 516.67 645.294 524.094 644.025 498.503C642.874 475.269 602.624 478.495 602.624 478.495Z" fill="none" opacity="1" stroke="#050505" stroke-linecap="butt" stroke-linejoin="round" stroke-width="10"/>
<path d="M376.897 387.981C376.897 387.981 448.811 428.618 513.678 436.906C550.868 441.658 590.174 428.322 605.651 411.405C621.128 394.487 668.691 384.511 668.691 384.511" fill="none" opacity="1" stroke="#050505" stroke-linecap="butt" stroke-linejoin="round" stroke-width="10"/>
</g>
</svg>