<?xml version="1.0" encoding="UTF-8" standalone="no"?>
<!DOCTYPE svg PUBLIC "-//W3C//DTD SVG 1.1//EN" "http://www.w3.org/Graphics/SVG/1.1/DTD/svg11.dtd">
<svg height="100%" stroke-miterlimit="10" style="fill-rule:nonzero;clip-rule:evenodd;stroke-linecap:round;stroke-linejoin:round;" version="1.1" viewBox="0 0 841.995 595.35" width="100%" xml:space="preserve" xmlns="http://www.w3.org/2000/svg" xmlns:xlink="http://www.w3.org/1999/xlink">
<defs/>
<g id="Layer-1">
<path d="M508.771 151.321L737.062 288.955L435.909 222.548L508.771 151.321Z" fill="none" opacity="1" stroke="#000000" stroke-linecap="butt" stroke-linejoin="round" stroke-width="10"/>
<path d="M381.055 353.131L315.181 503.612L301.311 434.755L381.055 353.131Z" fill="none" opacity="1" stroke="#000000" stroke-linecap="butt" stroke-linejoin="round" stroke-width="10"/>
<path d="M341.813 329.251L542.993 109.974L549.369 436.845L341.813 329.251Z" fill="none" opacity="1" stroke="#000000" stroke-linecap="butt" stroke-linejoin="round" stroke-width="10"/>
<g opacity="1">
<path d="M505.719 193.531C504.64 193.318 503.477 193.448 502.438 193.781C497.371 195.407 495.01 203.055 497.781 207.469C498.594 208.763 499.903 209.627 501.344 210.188C501.367 210.316 501.311 210.433 501.344 210.562C502.125 213.616 505.101 214.807 508 214.688C509.212 214.638 510.395 214.415 511.562 214.094C513.518 213.555 515.423 212.742 517.156 211.688C517.773 211.312 518.333 210.91 518.844 210.469C518.861 210.454 518.889 210.452 518.906 210.438C519.919 209.692 520.827 208.807 521.281 207.625C521.828 206.202 521.647 204.8 521.219 203.469C521.423 202.987 521.711 202.529 521.719 201.969C521.726 201.431 521.658 200.891 521.5 200.375C520.35 196.626 515.745 197.319 512.812 198.75C512.275 198.837 511.754 198.996 511.219 199.156C511.183 199.129 511.162 199.089 511.125 199.062C510.957 198.635 510.794 198.195 510.594 197.781C509.584 195.7 508.093 194.001 505.719 193.531ZM517.312 198.281C518.708 198.408 519.978 198.971 520.438 200.375C520.6 200.871 520.602 201.336 520.562 201.781C519.514 200.167 517.841 198.931 515.844 198.625C515.462 198.567 515.048 198.695 514.656 198.688C515.531 198.483 516.378 198.196 517.312 198.281ZM514.594 205.219C514.602 205.222 514.618 205.215 514.625 205.219C514.585 205.246 514.625 205.373 514.625 205.375C514.621 205.43 514.602 205.309 514.594 205.219Z" fill="#000000" stroke="none"/>
</g>
<path d="M492.885 163.014L236.194 8.81292L60.8904 123.925L209.182 173.653L447.545 225.411" fill="none" opacity="1" stroke="#000000" stroke-linecap="butt" stroke-linejoin="round" stroke-width="10"/>
<path d="M545.044 114.626L126.147 31.214L193.274 294.934L284.657 286.497L393.846 276.416" fill="none" opacity="1" stroke="#000000" stroke-linecap="butt" stroke-linejoin="round" stroke-width="10"/>
<path d="M506.658 425.249L419.951 519.35L509.012 582.145L420.197 520.034L464.226 469.614C464.226 469.614 525.643 539.958 536.967 551.344C548.291 562.731 464.918 470.283 464.918 470.283L507.135 426.156L568.012 517.139L506.658 425.249Z" fill="none" opacity="1" stroke="#000000" stroke-linecap="butt" stroke-linejoin="round" stroke-width="10"/>
</g>
</svg>
